<svg width="126" height="126" xmlns="http://www.w3.org/2000/svg" fill="#fff">

 <g>
  <title>Layer 1</title>
  <g id="svg_1" fill="#de7b6c">
   <path id="svg_2" d="m11,48.14286l29,-8l9,-29l7,7l0,38l-38,0l-7,-8z"/>
   <path id="svg_3" d="m115,115.14286l-15,-2l-16,-17l-63,0l-10,-16l50,-19l19,-50l17,10l0,63l17,17l1,14zm-79,-31l-2,6l4,5l3,1l31,0l-9,-10l-7,0l0,-6l-4,-5l-8,0l0,9l-8,0zm61,-47l-4,-4l-8,0l0,9l-7,0l-2,6l6,6l6,0l0,5l9,11l0,-33z"/>
  </g>
  <g>
   <g>
    <title>Layer 1</title>
    <g fill="#de7b6c" id="svg_5">
     <path d="m46,21l3,-10l7,7l0,13l-10,-10zm-13,35l-15,0l-7,-8l11.5,-3.2l10.5,11.2z" id="svg_7"/>
     <path d="m100,113l-16,-17l-63,0l-10,-16l33.3,-12.7l20.7,20.7l24,0l0,-24l-21.1,-21.1l12.1,-31.9l17,10l0,63l17,17l1,14l-15,-2z" id="svg_6"/>
    </g>
   </g>
  </g>
 </g>
</svg>