<svg width="126" height="126" xmlns="http://www.w3.org/2000/svg" fill="#fff">

 <g>
  <title>Layer 1</title>
  <path id="svg_1" d="m90,33s-6,-8.3 -18,-15l43,0l0,15l-25,0zm2,24l0,14l-61,0l0,-3l7,0l1,-1l7,-1l1,-1l3,0l3,-4l0,-1l-3.1,-4l-2.9,0l-1,-1l-7,-1l-5,0l0,-1l5,0l7,-1l1,-1l3,0l3,-4l0,-1l-3,-4l-3,0l-1,-1l-6,-1l-6,0l12,-1l1,-1l3,0l3,-4l0,-1l-3,-4l-3,0l-1,-1l-10,-1l-5,0l0,-9l22,0s39,0 39,39zm-7,19l0,16l-44,0l0,-16l44,0zm8,20l13,16l-88,0l13,-16l62,0z" fill="#679552"/>
  <rect id="svg_6" height="42.60274" width="34.93151" y="25.90411" x="31.0822" fill="#679552"/>
 </g>
</svg>