<svg width="126" height="126" xmlns="http://www.w3.org/2000/svg" fill="#fff">

 <g>
  <title>Layer 1</title>
  <path id="svg_1" d="m94.5,93l15.3,0a53.7,53.7 0 0 1 7.2,27l-18,0c-0.4,-11 -2,-19.9 -4.5,-27zm-20.3,-25.8a54,54 0 0 1 33.7,22.8l-14.5,0c-5.3,-13 -13,-19.5 -19.2,-22.8zm16.1,22.8l-25.3,0l0,-23a37,37 0 0 1 25.3,23zm-54.8,3l26.5,0l0,27l-31,0a85.5,85.5 0 0 1 4.5,-27zm26.5,-26l0,23l-25.3,0a37,37 0 0 1 25.3,-23zm-28.4,23l-15.5,0a54,54 0 0 1 35.3,-23.1a42.4,42.4 0 0 0 -19.8,23.1zm-5.5,30l-19.1,0a53.7,53.7 0 0 1 7.2,-27l16.3,0c-2.4,7.1 -4.1,16 -4.4,27zm67.5,43a54,54 0 0 1 -65.2,0l65.2,0zm-4,-70a85.5,85.5 0 0 1 4.5,27l-31.1,0l0,-27l26.5,0l0.1,0z" fill="#de7b6c"/>
 </g>
</svg>