<svg viewBox="0 0 512 512" xmlns="http://www.w3.org/2000/svg" xml:space="preserve" style="fill-rule:evenodd;clip-rule:evenodd;stroke-linejoin:round;stroke-miterlimit:2">
  <desc>Traced by Dogo314</desc>
  <path style="fill:none" d="M0 0h512v512H0z"/>
  <path d="M1345.5 50c27.596 0 50 22.404 50 50s-22.404 50-50 50-50-22.404-50-50 22.404-50 50-50m70.101 30.515C1437.61 99.944 1451.5 128.363 1451.5 160c0 58.503-47.497 106-106 106s-106-47.497-106-106c0-31.637 13.89-60.056 35.899-79.485A72 72 0 0 0 1273.5 97c0 39.738 32.262 72 72 72s72-32.262 72-72c0-5.671-.657-11.19-1.899-16.485" style="fill:#cd8aea" transform="translate(-2933.333 -118.519)scale(2.37037)"/>
</svg>
