<?xml version="1.0" encoding="UTF-8" standalone="no"?>
<!-- Created with Inkscape (http://www.inkscape.org/) -->

<svg
   version="1.1"
   id="svg1"
   width="256"
   height="256"
   viewBox="0 0 256 256"
   xml:space="preserve"
   xmlns="http://www.w3.org/2000/svg"
   xmlns:svg="http://www.w3.org/2000/svg"><defs
     id="defs1" /><g
     id="g1"><path
       style="fill:#ffffff;fill-opacity:1;stroke-width:1.57349"
       d="M 14.771334,192.43128 14.463024,62.860548 125.10452,0.04338094 235.9331,62.763802 235.81538,192.51109 125.12728,256.01753 Z"
       id="path48-0" /><path
       style="display:none;fill:#ffffff;stroke:#ffffff;stroke-width:0.577148"
       d="m 1596.1504,49.061546 109.0854,-63.83279 109.0515,63.812922 V 177.58477 l -107.0801,62.65944 -110.861,-64.8719 z"
       id="path12-7-7-8-0"
       transform="translate(-1580.0573,15.247964)" /><path
       style="display:inline;fill:#000000;stroke:#000000;stroke-width:1.14704"
       d="m 1713.2062,55.339869 c 7.6946,11.577559 22.0743,32.304895 29.6728,50.733721 7.5985,18.42884 8.4158,34.55866 3.6065,45.44251 -4.8093,10.88392 -14.235,18.94907 -21.8817,23.06837 -7.6466,4.11934 -13.5137,4.29295 -19.8137,4.24968 -6.3001,-0.0407 -13.0328,-0.30281 -20.4392,-4.5963 -7.4062,-4.29291 -15.4854,-12.61812 -19.477,-23.97903 -3.9916,-11.36088 -3.8954,-25.75671 3.1261,-43.5352 7.0216,-17.778466 20.9679,-38.938535 28.374,-49.995786 7.4062,-11.057232 8.2719,-12.011171 8.7047,-12.488133 0.4331,-0.477001 0.4331,-0.477365 8.1275,11.100168 z"
       id="path8-8-8"
       transform="translate(-1580.0573,15.247964)" /><path
       style="fill:#ffffff;stroke:#000000;stroke-width:0.950166"
       d="m 1739.3215,134.18113 c 13.2439,-0.012 -11.4185,37.83191 -35.3269,37.64948 -20.5332,0.63324 -47.1655,-37.72499 -32.2302,-37.72499 33.2208,0 33.2454,0.11308 67.5571,0.0754 z"
       id="path8-8-5"
       transform="translate(-1580.0573,15.247964)" /></g></svg>
