<?xml version="1.0" encoding="UTF-8"?>
<!DOCTYPE svg PUBLIC "-//W3C//DTD SVG 1.1//EN" "http://www.w3.org/Graphics/SVG/1.1/DTD/svg11.dtd">
<svg xmlns="http://www.w3.org/2000/svg" version="1.1" width="256px" height="256px" style="shape-rendering:geometricPrecision; text-rendering:geometricPrecision; image-rendering:optimizeQuality; fill-rule:evenodd; clip-rule:evenodd" xmlns:xlink="http://www.w3.org/1999/xlink">
<g><path style="opacity:0.98" fill="#fefefe" d="M 122.5,-0.5 C 123.833,-0.5 125.167,-0.5 126.5,-0.5C 162.523,20.266 198.689,40.9327 235,61.5C 235.667,105.167 235.667,148.833 235,192.5C 198.689,213.4 162.522,234.4 126.5,255.5C 125.167,255.5 123.833,255.5 122.5,255.5C 86.4781,234.4 50.3114,213.4 14,192.5C 13.1667,148.83 13.3334,105.163 14.5,61.5C 50.5627,40.8063 86.5627,20.1397 122.5,-0.5 Z"/></g>
<g><path style="opacity:1" fill="#0a0a0a" d="M 131.5,43.5 C 134.219,44.913 137.219,45.5797 140.5,45.5C 159.129,49.1535 177.796,53.1535 196.5,57.5C 196.833,97.8388 196.5,138.172 195.5,178.5C 171.236,192.77 147.236,207.436 123.5,222.5C 99.7077,207.206 75.541,192.539 51,178.5C 50.3333,138.167 50.3333,97.8333 51,57.5C 69.2495,52.6524 87.7495,48.819 106.5,46C 114.609,41.7725 122.942,40.9391 131.5,43.5 Z"/></g>
<g><path style="opacity:1" fill="#767676" d="M 131.5,43.5 C 134.781,43.4203 137.781,44.087 140.5,45.5C 137.219,45.5797 134.219,44.913 131.5,43.5 Z"/></g>
<g><path style="opacity:1" fill="#f6f6f6" d="M 184.5,68.5 C 184.826,101.906 184.493,135.24 183.5,168.5C 163.49,180.504 143.49,192.504 123.5,204.5C 103.206,193.019 83.2064,181.019 63.5,168.5C 62.5001,135.173 62.1668,101.84 62.5,68.5C 69.3928,66.6549 76.3928,65.3215 83.5,64.5C 87.479,64.2576 91.1456,63.2576 94.5,61.5C 103.978,59.5486 113.478,57.5486 123,55.5C 143.364,60.4064 163.864,64.7397 184.5,68.5 Z"/></g>
<g><path style="opacity:1" fill="#777777" d="M 94.5,61.5 C 91.1456,63.2576 87.479,64.2576 83.5,64.5C 86.8088,62.6301 90.4754,61.6301 94.5,61.5 Z"/></g>
<g><path style="opacity:1" fill="#060606" d="M 127.5,69.5 C 129.515,70.9238 131.848,71.5905 134.5,71.5C 138.076,72.4853 141.742,73.152 145.5,73.5C 145.5,79.5 145.5,85.5 145.5,91.5C 130.833,91.5 116.167,91.5 101.5,91.5C 101.171,85.4632 101.504,79.4632 102.5,73.5C 109.554,72.0762 116.554,70.4095 123.5,68.5C 124.849,68.8457 126.183,69.179 127.5,69.5 Z"/></g>
<g><path style="opacity:1" fill="#515151" d="M 184.5,68.5 C 185.167,84.9966 185.5,101.663 185.5,118.5C 185.5,135.514 184.833,152.18 183.5,168.5C 184.493,135.24 184.826,101.906 184.5,68.5 Z"/></g>
<g><path style="opacity:1" fill="#747474" d="M 127.5,69.5 C 130.228,69.1706 132.562,69.8372 134.5,71.5C 131.848,71.5905 129.515,70.9238 127.5,69.5 Z"/></g>
<g><path style="opacity:1" fill="#090909" d="M 87.5,75.5 C 88.8333,75.5 90.1667,75.5 91.5,75.5C 91.5,80.8333 91.5,86.1667 91.5,91.5C 85.5,91.5 79.5,91.5 73.5,91.5C 73.5,87.1667 73.5,82.8333 73.5,78.5C 78.4501,78.2301 83.1167,77.2301 87.5,75.5 Z"/></g>
<g><path style="opacity:1" fill="#070707" d="M 155.5,75.5 C 161.137,76.8285 166.804,78.1618 172.5,79.5C 173.491,83.4454 173.824,87.4454 173.5,91.5C 167.5,91.5 161.5,91.5 155.5,91.5C 155.5,86.1667 155.5,80.8333 155.5,75.5 Z"/></g>
<g><path style="opacity:1" fill="#000000" d="M 73.5,100.5 C 88.5,100.5 103.5,100.5 118.5,100.5C 118.5,107.833 118.5,115.167 118.5,122.5C 103.5,122.5 88.5,122.5 73.5,122.5C 73.5,115.167 73.5,107.833 73.5,100.5 Z"/></g>
<g><path style="opacity:1" fill="#000000" d="M 128.5,100.5 C 143.5,100.5 158.5,100.5 173.5,100.5C 173.5,107.833 173.5,115.167 173.5,122.5C 158.5,122.5 143.5,122.5 128.5,122.5C 128.5,115.167 128.5,107.833 128.5,100.5 Z"/></g>
<g><path style="opacity:1" fill="#7e7e7e" d="M 145.5,154.5 C 145.5,147.167 145.5,139.833 145.5,132.5C 130.833,132.5 116.167,132.5 101.5,132.5C 101.5,139.833 101.5,147.167 101.5,154.5C 100.508,147.018 100.175,139.352 100.5,131.5C 115.833,131.5 131.167,131.5 146.5,131.5C 146.825,139.352 146.492,147.018 145.5,154.5 Z"/></g>
<g><path style="opacity:1" fill="#000000" d="M 73.5,132.5 C 79.5,132.5 85.5,132.5 91.5,132.5C 91.5,139.833 91.5,147.167 91.5,154.5C 85.5,154.5 79.5,154.5 73.5,154.5C 73.5,147.167 73.5,139.833 73.5,132.5 Z"/></g>
<g><path style="opacity:1" fill="#000000" d="M 145.5,154.5 C 130.833,154.5 116.167,154.5 101.5,154.5C 101.5,147.167 101.5,139.833 101.5,132.5C 116.167,132.5 130.833,132.5 145.5,132.5C 145.5,139.833 145.5,147.167 145.5,154.5 Z"/></g>
<g><path style="opacity:1" fill="#000000" d="M 155.5,132.5 C 161.5,132.5 167.5,132.5 173.5,132.5C 173.5,139.833 173.5,147.167 173.5,154.5C 167.5,154.5 161.5,154.5 155.5,154.5C 155.5,147.167 155.5,139.833 155.5,132.5 Z"/></g>
<g><path style="opacity:1" fill="#0b0b0b" d="M 80.5,164.5 C 92.989,163.505 105.656,163.171 118.5,163.5C 118.831,171.196 118.497,178.862 117.5,186.5C 105.306,178.812 92.973,171.478 80.5,164.5 Z"/></g>
<g><path style="opacity:1" fill="#070707" d="M 128.5,163.5 C 141.171,163.333 153.838,163.5 166.5,164C 153.751,171.123 141.251,178.623 129,186.5C 128.5,178.841 128.334,171.174 128.5,163.5 Z"/></g>
</svg>
