<?xml version="1.0" encoding="UTF-8" standalone="no"?>
<!-- Created with Inkscape (http://www.inkscape.org/) -->

<svg
   version="1.1"
   id="svg1"
   width="256"
   height="256"
   viewBox="0 0 256 256"
   xml:space="preserve"
   xmlns="http://www.w3.org/2000/svg"
   xmlns:svg="http://www.w3.org/2000/svg"><defs
     id="defs1" /><g
     id="g1"><path
       style="fill:#ffffff;fill-opacity:1;stroke-width:1.57349"
       d="M 14.771334,192.43128 14.463024,62.860548 125.10452,0.04338094 235.9331,62.763802 235.81538,192.51109 125.12728,256.01753 Z"
       id="path48-0"
       transform="translate(5.9929848e-6)" /><ellipse
       style="fill:#000000;stroke:#000000;stroke-width:0.110042"
       id="path13"
       cx="-612.54059"
       cy="94.37571"
       rx="2.4818563"
       ry="2.5705276"
       transform="matrix(3.5290555,0,0,3.5290555,2218.5892,-213.73559)" /><ellipse
       style="fill:#000000;stroke:#000000;stroke-width:0.110042"
       id="path13-1"
       cx="-610.05426"
       cy="104.1477"
       rx="2.4818563"
       ry="2.5705276"
       transform="matrix(3.5290555,0,0,3.5290555,2218.5892,-213.73559)" /><ellipse
       style="fill:#000000;stroke:#000000;stroke-width:0.110042"
       id="path13-8"
       cx="-602.95087"
       cy="111.15263"
       rx="2.4818563"
       ry="2.5705276"
       transform="matrix(3.5290555,0,0,3.5290555,2218.5892,-213.73559)" /><ellipse
       style="fill:#000000;stroke:#000000;stroke-width:0.110042"
       id="path13-5"
       cx="-593.1134"
       cy="113.5172"
       rx="2.4818563"
       ry="2.5705276"
       transform="matrix(3.5290555,0,0,3.5290555,2218.5892,-213.73559)" /><ellipse
       style="fill:#000000;stroke:#000000;stroke-width:0.110042"
       id="path13-7"
       cx="-583.20691"
       cy="111.21669"
       rx="2.4818563"
       ry="2.5705276"
       transform="matrix(3.5290555,0,0,3.5290555,2218.5892,-213.73559)" /><ellipse
       style="fill:#000000;stroke:#000000;stroke-width:0.110042"
       id="path13-0"
       cx="-576.23163"
       cy="104.09352"
       rx="2.4818563"
       ry="2.5705276"
       transform="matrix(3.5290555,0,0,3.5290555,2218.5892,-213.73559)" /><ellipse
       style="fill:#000000;stroke:#000000;stroke-width:0.110042"
       id="path13-6"
       cx="-573.29565"
       cy="94.211754"
       rx="2.4818563"
       ry="2.5705276"
       transform="matrix(3.5290555,0,0,3.5290555,2218.5892,-213.73559)" /><path
       style="fill:#000000;stroke:#000000;stroke-width:0.108168"
       d="m -602.37295,82.227751 6.59122,-1.891652 5.4385,-0.02956 6.20698,2.00988 v 17.146678 l -9.04573,5.222563 -9.00547,-5.19932 -0.071,-0.04098 -0.10552,-0.06092 z"
       id="path14"
       transform="matrix(3.5290555,0,0,3.5290555,2218.5892,-213.73559)" /></g></svg>
