<?xml version="1.0" encoding="UTF-8"?>
<!DOCTYPE svg PUBLIC "-//W3C//DTD SVG 1.1//EN" "http://www.w3.org/Graphics/SVG/1.1/DTD/svg11.dtd">
<svg xmlns="http://www.w3.org/2000/svg" version="1.1" width="256px" height="256px" style="shape-rendering:geometricPrecision; text-rendering:geometricPrecision; image-rendering:optimizeQuality; fill-rule:evenodd; clip-rule:evenodd" xmlns:xlink="http://www.w3.org/1999/xlink">
<g><path style="opacity:0.989" fill="#fefefe" d="M 122.5,-0.5 C 123.833,-0.5 125.167,-0.5 126.5,-0.5C 162.523,20.266 198.689,40.9327 235,61.5C 235.667,105.167 235.667,148.833 235,192.5C 198.689,213.4 162.522,234.4 126.5,255.5C 125.167,255.5 123.833,255.5 122.5,255.5C 86.4781,234.4 50.3114,213.4 14,192.5C 13.1667,148.83 13.3334,105.163 14.5,61.5C 50.5627,40.8063 86.5627,20.1397 122.5,-0.5 Z"/></g>
<g><path style="opacity:1" fill="#707070" d="M 127.5,66.5 C 123.454,66.9521 119.454,67.6187 115.5,68.5C 117.026,66.87 119.026,66.0367 121.5,66C 123.712,65.2109 125.712,65.3775 127.5,66.5 Z"/></g>
<g><path style="opacity:1" fill="#070707" d="M 127.5,66.5 C 131.071,67.6422 134.738,68.3089 138.5,68.5C 140.515,69.9238 142.848,70.5905 145.5,70.5C 150.464,71.7112 155.464,72.7112 160.5,73.5C 160.667,93.8361 160.5,114.169 160,134.5C 151.72,139.719 143.553,145.053 135.5,150.5C 134.504,137.344 134.171,124.01 134.5,110.5C 138.884,110.826 143.217,110.492 147.5,109.5C 140.14,102.472 132.807,95.4723 125.5,88.5C 117.95,95.2607 110.616,102.261 103.5,109.5C 107.783,110.492 112.116,110.826 116.5,110.5C 116.829,124.01 116.496,137.344 115.5,150.5C 107.216,145.389 99.0493,140.056 91,134.5C 90.5,114.169 90.3334,93.8361 90.5,73.5C 98.7923,71.7284 107.126,70.0618 115.5,68.5C 119.454,67.6187 123.454,66.9521 127.5,66.5 Z"/></g>
<g><path style="opacity:1" fill="#969696" d="M 138.5,68.5 C 141.152,68.4095 143.485,69.0762 145.5,70.5C 142.848,70.5905 140.515,69.9238 138.5,68.5 Z"/></g>
<g><path style="opacity:1" fill="#9e9e9e" d="M 59.5,109.5 C 56.7628,109.401 54.0961,109.735 51.5,110.5C 52.4919,108.974 53.9919,108.307 56,108.5C 57.3847,108.514 58.5514,108.848 59.5,109.5 Z"/></g>
<g><path style="opacity:1" fill="#080808" d="M 59.5,109.5 C 65.3557,113.838 66.0223,119.004 61.5,125C 51.499,128.582 46.999,125.082 48,114.5C 48.66,112.676 49.8267,111.343 51.5,110.5C 54.0961,109.735 56.7628,109.401 59.5,109.5 Z"/></g>
<g><path style="opacity:1" fill="#090909" d="M 190.5,109.5 C 202.679,108.881 206.012,113.881 200.5,124.5C 189.997,128.509 185.497,124.842 187,113.5C 188.376,112.295 189.542,110.962 190.5,109.5 Z"/></g>
<g><path style="opacity:1" fill="#aaaaaa" d="M 116.5,110.5 C 117.826,124.006 117.826,137.672 116.5,151.5C 115.893,151.376 115.56,151.043 115.5,150.5C 116.496,137.344 116.829,124.01 116.5,110.5 Z"/></g>
<g><path style="opacity:1" fill="#aaaaaa" d="M 134.5,110.5 C 134.171,124.01 134.504,137.344 135.5,150.5C 135.44,151.043 135.107,151.376 134.5,151.5C 133.174,137.672 133.174,124.006 134.5,110.5 Z"/></g>
<g><path style="opacity:1" fill="#0e0e0e" d="M 68.5,160.5 C 65.7628,160.599 63.0961,160.265 60.5,159.5C 54.2349,151.994 55.7349,146.661 65,143.5C 72.1974,144.363 75.1974,148.363 74,155.5C 72.9455,158.056 71.1122,159.723 68.5,160.5 Z"/></g>
<g><path style="opacity:1" fill="#0e0e0e" d="M 188.5,160.5 C 185.763,160.599 183.096,160.265 180.5,159.5C 175.018,154.15 175.351,148.983 181.5,144C 190.014,142.523 194.181,146.023 194,154.5C 192.839,157.185 191.006,159.185 188.5,160.5 Z"/></g>
<g><path style="opacity:1" fill="#7f7f7f" d="M 60.5,159.5 C 63.0961,160.265 65.7628,160.599 68.5,160.5C 67.5514,161.152 66.3847,161.486 65,161.5C 62.9919,161.693 61.4919,161.026 60.5,159.5 Z"/></g>
<g><path style="opacity:1" fill="#808080" d="M 180.5,159.5 C 183.096,160.265 185.763,160.599 188.5,160.5C 187.551,161.152 186.385,161.486 185,161.5C 182.992,161.693 181.492,161.026 180.5,159.5 Z"/></g>
<g><path style="opacity:1" fill="#0b0b0b" d="M 87.5,168.5 C 96.4978,168.329 100.331,172.662 99,181.5C 93.5272,188.123 88.1938,188.123 83,181.5C 82.3333,178.833 82.3333,176.167 83,173.5C 84.7073,171.963 86.2073,170.296 87.5,168.5 Z"/></g>
<g><path style="opacity:1" fill="#0a0a0a" d="M 157.5,168.5 C 165.908,168.75 169.408,173.083 168,181.5C 162.715,188.152 157.381,188.152 152,181.5C 150.571,175.7 152.404,171.367 157.5,168.5 Z"/></g>
<g><path style="opacity:1" fill="#0c0c0c" d="M 121.5,178.5 C 130.084,177.598 134.25,181.264 134,189.5C 131.367,194.732 127.201,196.565 121.5,195C 114.843,189.327 114.843,183.827 121.5,178.5 Z"/></g>
</svg>
