<?xml version="1.0" encoding="UTF-8" standalone="no"?>
<!-- Created with Inkscape (http://www.inkscape.org/) -->

<svg
   version="1.1"
   id="svg1"
   width="256"
   height="256"
   viewBox="0 0 256 256"
   xml:space="preserve"
   xmlns="http://www.w3.org/2000/svg"
   xmlns:svg="http://www.w3.org/2000/svg"><defs
     id="defs1" /><g
     id="g1"><path
       style="fill:#ffffff;fill-opacity:1;stroke-width:1.57349"
       d="M 14.771334,192.43128 14.463024,62.860548 125.10452,0.04338094 235.9331,62.763802 235.81538,192.51109 125.12728,256.01753 Z"
       id="path48-0" /><rect
       style="fill:#000000;fill-opacity:1;stroke-width:1.973;stroke-linejoin:round"
       id="rect1"
       width="42.355499"
       height="2.1007957"
       x="-404.71552"
       y="31.903566"
       transform="matrix(3.5478939,0,0,3.5478939,1485.492,13.10486)" /><rect
       style="fill:#000000;fill-opacity:1;stroke-width:1.973;stroke-linejoin:round"
       id="rect2"
       width="2.2265625"
       height="43.039062"
       x="-384.66406"
       y="11.375001"
       transform="matrix(3.5478939,0,0,3.5478939,1485.492,13.10486)" /><ellipse
       style="fill:#000000;fill-rule:evenodd;stroke-width:1.28864"
       id="path46"
       cx="-383.4375"
       cy="32.75"
       rx="18.1875"
       ry="18.375"
       transform="matrix(3.5478939,0,0,3.5478939,1485.492,13.10486)" /><path
       style="fill:#ffffff;stroke-width:0.144109"
       d="m -391.84028,44.460755 -0.006,0.0035 v -0.0042 -0.0042 c 2.56705,-7.805793 5.01139,-15.652057 7.60937,-23.447498 0.015,6.00882 0.0857,12.017517 0.0935,18.026339 l -7.69142,5.423584 z m 16.95253,0.0021 -0.005,-4.28e-4 -7.68983,-5.423962 c 0.0328,-6.008204 0.0463,-12.016631 0.093,-18.024756 2.53644,7.806149 5.06652,15.614362 7.59885,23.421843 l 0.004,0.01388 0.004,0.01388 z m -14.83697,-10.951835 -0.004,0.01066 -7.03892,-5.244692 8.49687,-0.0028 0.003,0.0028 0.003,0.0028 -1.45618,5.220426 z m 12.72443,0.01101 h -0.003 l -0.004,-0.0108 -0.004,-0.0108 -1.4477,-5.191232 -0.004,-0.0176 -0.003,-0.0176 h 8.5039 l -0.0122,0.01178 -0.0122,0.01178 -7.01296,5.22464 z"
       id="path45"
       transform="matrix(3.5478939,0,0,3.5478939,1485.492,13.10486)" /></g></svg>
