<?xml version="1.0" encoding="UTF-8" standalone="no"?>
<!-- Created with Inkscape (http://www.inkscape.org/) -->

<svg
   version="1.1"
   id="svg1"
   width="256"
   height="256"
   viewBox="0 0 256 256"
   xml:space="preserve"
   xmlns="http://www.w3.org/2000/svg"
   xmlns:svg="http://www.w3.org/2000/svg"><defs
     id="defs1" /><g
     id="g1"
     transform="translate(347.59857,1.1937605)"
     style="display:inline"><path
       style="display:inline;fill:#ffffff;fill-opacity:1;stroke:#ffffff;stroke-width:1.56271"
       d="M -209.15639,196.30463 -209.46253,67.621575 -99.579013,5.2347883 10.490274,67.525513 10.373567,196.3839 -99.556203,259.45525 Z"
       id="path48-0-4-73-07"
       transform="matrix(1.0006993,0,0,1.0001023,-122.94481,-5.559572)" /><path
       style="fill:#000000;fill-opacity:1"
       d="m -277.01536,186.05432 h 111.62124 l -37.09683,-37.34488 h -14.9104 l -14.91039,-14.80015 z"
       id="path1" /><path
       style="fill:#000000;fill-opacity:1"
       d="m -251.01391,142.72829 11.22533,-12.82339 -8.71133,-58.679657 -13.05725,1.73447 z"
       id="path2" /><path
       style="fill:#000000;fill-opacity:1"
       d="m -240.05633,70.822612 6.0496,40.541938 c 8.01596,-6.05008 18.00675,-7.52688 29.97237,-4.4304 11.03017,3.4083 21.02096,1.9315 29.97237,-4.4304 l -6.06337,-40.486813 c -9.05305,6.560589 -19.04154,8.028201 -29.96548,4.402838 -12.79483,-3.001734 -22.78333,-1.534122 -29.96549,4.402837 z"
       id="path3" /></g></svg>
