<?xml version="1.0" encoding="UTF-8" standalone="no"?>
<!-- Created with Inkscape (http://www.inkscape.org/) -->

<svg
   version="1.1"
   id="svg1"
   width="256"
   height="256"
   viewBox="0 0 256 256"
   xml:space="preserve"
   xmlns="http://www.w3.org/2000/svg"
   xmlns:svg="http://www.w3.org/2000/svg"><defs
     id="defs1" /><g
     id="g1"><path
       style="fill:#ffffff;fill-opacity:1;stroke-width:1.57349"
       d="M 14.771334,192.43128 14.463024,62.860548 125.10452,0.04338094 235.9331,62.763802 235.81538,192.51109 125.12728,256.01753 Z"
       id="path48-0" /><path
       style="fill:#000000;stroke:#ffffff;stroke-width:0.405681"
       d="m 860.65102,-34.115938 22.44055,-23.34514 12.44994,31.49993 h -31.04792 z"
       id="path5"
       transform="translate(-793.1274,209.09904)" /><path
       style="fill:#000000;stroke:#ffffff;stroke-width:0.410039"
       d="m 890.52471,-59.702968 50.07118,-18.43131 15.99385,44.90681 -15.64941,7.11868 -38.30405,0.22108 z"
       id="path6"
       transform="translate(-793.1274,209.09904)" /><path
       style="fill:#000000;stroke:#ffffff;stroke-width:0.433907"
       d="m 963.20211,-35.768148 16.6506,-12.01376 -13.9482,-31.20341 -17.26087,0.24194 z"
       id="path7"
       transform="translate(-793.1274,209.09904)" /><ellipse
       style="fill:#000000;stroke:#000000;stroke-width:0.489197"
       id="path8"
       cx="926.42554"
       cy="-127.75573"
       rx="18.869926"
       ry="17.24943"
       transform="translate(-793.1274,209.09904)" /><ellipse
       style="fill:#000000;stroke:#000000;stroke-width:0.431923"
       id="path9"
       cx="899.13849"
       cy="-91.582108"
       rx="12.312028"
       ry="12.887043"
       transform="translate(-793.1274,209.09904)" /><circle
       style="fill:#000000;stroke:#000000;stroke-width:0.484103"
       id="path10"
       cx="919.83905"
       cy="-103.55282"
       r="13.749612"
       transform="translate(-793.1274,209.09904)" /><ellipse
       style="fill:#000000;stroke:#000000;stroke-width:0.382608"
       id="path11"
       cx="890.6178"
       cy="-78.095375"
       rx="4.5478458"
       ry="4.8614907"
       transform="translate(-793.1274,209.09904)" /></g></svg>
