<?xml version="1.0" encoding="UTF-8" standalone="no"?>
<!-- Created with Inkscape (http://www.inkscape.org/) -->

<svg
   width="255.99998mm"
   height="255.99998mm"
   viewBox="0 0 255.99999 255.99999"
   version="1.1"
   id="svg1"
   xml:space="preserve"
   xmlns="http://www.w3.org/2000/svg"
   xmlns:svg="http://www.w3.org/2000/svg"><defs
     id="defs1" /><g
     id="layer1"
     transform="translate(-30.512324,-61.22979)"
     style="display:inline"><path
       style="display:inline;fill:#ffffff;fill-opacity:1;stroke-width:0.416362"
       d="m 158.60207,61.22979 -110.652689,62.82352 0.30849,129.58384 110.366849,63.59264 110.69931,-63.51284 0.11787,-129.76039 z"
       id="path1" /><path
       style="display:inline;fill:#000000;fill-opacity:1;stroke-width:1.57365"
       d="m 174.39747,187.33802 c -10.53026,-5.84939 -21.06052,-5.82228 -31.59081,0.0813 l -7.7025,58.72916 47.32098,0.0749 z m 40.57412,-63.63591 -6.84888,6.85597 c 16.23088,25.59342 13.59898,46.54686 0.25086,72.43487 l 5.97943,6.49859 c 18.0476,-30.88849 19.54481,-55.02586 0.61859,-85.78943 z m -12.22109,12.60348 -6.61657,6.2005 c 1.00696,1.30255 16.63342,22.2815 -1.10212,47.69772 l 6.37814,5.70646 c 17.50517,-23.26638 12.13837,-42.30483 1.34055,-59.60468 z m -16.21071,47.44114 -0.13989,-35.85713 c -22.26788,11.01214 -33.87051,9.83609 -55.18364,0.13991 l -0.13989,35.7897 c 13.43388,-7.40741 32.54031,-11.80431 55.46345,-0.0726 z m -64.04008,-40.98704 -6.46686,-5.9297 c -14.55395,20.19707 -13.59857,39.49947 2.12697,58.02263 l 5.66274,-5.59223 c -13.6881,-16.64565 -12.81213,-29.60341 -1.32285,-46.5007 z m -12.92294,-12.29295 -5.38527,-7.00416 c -27.32925,42.70213 -13.510836,66.39623 1.98214,86.1244 l 4.94064,-6.6477 C 95.719954,176.79834 92.377838,158.82554 109.57677,130.46674 Z"
       id="path48" /></g></svg>
