<svg width="126" height="126" xmlns="http://www.w3.org/2000/svg">

 <g>
  <title>Layer 1</title>
  <path id="svg_4" d="m117.43,54.6405s0.731,8.106 -3.04,8.106l-2.026,0l0,-0.507l-0.507,0l0,-0.507l-10.132,0l0,-0.506l-0.506,0l0,0.507l-2.026,0l0,3.04l0.507,0a102.061,102.061 0 0 1 0.507,13.171l-0.507,1.52l-3.04,0s-0.928,-1.862 -1.013,-9.119l0,-5.573l-1.013,-0.507l0,-2.026l-0.507,-0.507l-2.533,0l0,1.013l-1.014,0l-0.507,0.507l-2.026,0l0,1.013l-1.013,-0.51l-3.039,0a3.469,3.469 0 0 0 0,3.04s-1.86,-0.137 -1.013,-3.546l-1.014,1.016l0,3.04l1.013,1.52l-1.013,0l-0.507,-0.507l-1.52,0l-5.573,9.119l-1.012,0l-3.04,-2.027l0,-1.013l5.573,-9.119l0,-1.523l-1.52,-0.507l-2.026,0l-0.507,-0.507l-2.536,-0.502l-0.5,-0.507l-8.109,0l-0.506,1.013l-2.533,0l-2.026,-0.507l-4.56,0l-1.52,0.507l-11.146,0l-1.52,-0.507l-4.558,0l-2.022,0.507l-2.031,0l-1.013,-1.013l-1.014,0l-0.507,0.507l-2.535,0l-0.5,-0.507l-3.04,0l-0.507,0.507l-2.029,0l-0.507,-0.507l-1.017,0l-0.507,0.507s-5.066,1.8 -5.066,-2.533l0,-9.119s0.086,-3.04 2.533,-3.04l1.52,0.507l2.533,0l0.507,-0.507l2.03,0l0.507,0.508l12.665,0l0.507,-0.507l3.546,0l1.013,0.507l14.184,0l0.507,-0.507l3.04,0l0,0.507l22.8,0l1.013,-0.507l2.533,0l0.507,-1.013l0.507,0l0.507,1.52l11.141,0l1.013,-0.507l1.013,0l0,0.507l1.013,0l0,-0.508l1.013,0l0.507,0.508l13.171,0s-0.3,-1.013 2.027,-1.013s3.546,0.352 3.546,7.598z" fill-rule="evenodd" fill="#49adc9"/>
 </g>
</svg>